<svg width="381" height="507" viewBox="0 0 381 507" fill="none" xmlns="http://www.w3.org/2000/svg">
<path d="M8.18087 276.173C21.3196 238.827 34.9602 201.659 48.4125 164.42C54.0146 148.921 59.7001 133.451 66.1537 115.75C78.6251 133.393 89.6258 148.967 101.696 166.048C104.698 160.753 106.772 157.371 108.574 153.853C133.355 105.516 158.065 57.1577 182.855 8.83088C188.784 -2.73299 188.864 -2.68096 196.387 8.53403C205.309 21.8276 214.269 35.0972 223.168 48.4049C270.558 119.276 318.572 189.73 365.054 261.199C391.093 301.228 384.195 351.973 350.906 385.964C321.924 415.551 292.96 445.148 263.917 474.67C221.801 517.478 161.456 517.497 118.626 474.683C90.3598 446.424 62.2659 417.984 34.0052 389.73C1.56647 357.302 -7.01318 319.356 8.18087 276.173ZM62.8805 349.679C94.4238 381.455 126.143 413.057 157.602 444.924C167.106 454.545 178.075 459.84 192.359 459.612C205.142 460.012 216.201 454.18 225.437 444.799C257.291 412.457 289.291 380.257 320.572 347.353C340 326.924 339.272 299.73 319.498 279.576C288.136 247.609 256.538 215.88 224.767 184.335C203.18 162.912 176.515 163.321 155.295 184.913C124.31 216.444 93.3387 247.994 62.4568 279.634C41.1301 301.485 41.3116 327.948 62.8805 349.679ZM189.152 351.149C205.345 351.472 218.294 365.116 217.909 381.456C217.522 397.915 203.919 410.849 187.796 410.096C171.865 409.346 159.329 396.262 159.437 380.495C159.548 364.439 173.323 350.831 189.152 351.149ZM255.418 286.091C272.104 286.284 284.272 299.178 283.861 316.218C283.46 332.615 270.996 344.792 254.873 344.554C238.964 344.321 226.215 331.427 226.119 315.472C226.015 298.708 238.79 285.898 255.418 286.091ZM123.912 284.088C140.594 284.172 153.206 297.149 152.923 313.936C152.656 330.164 140.043 342.608 123.95 342.522C107.717 342.435 95.2579 330.066 94.993 313.758C94.7167 296.869 107.259 284.003 123.912 284.088ZM190.221 218.548C206.698 218.611 219.62 231.847 219.45 248.484C219.284 264.439 206.354 277.319 190.442 277.359C174.563 277.405 160.907 263.424 160.978 247.192C161.057 231.49 174.334 218.484 190.221 218.548Z" fill="#0F1923" fill-opacity="0.4"/>
</svg>
