<svg width="21" height="15" viewBox="0 0 21 15" fill="none" xmlns="http://www.w3.org/2000/svg">
<g clip-path="url(#clip0_48_627)">
<mask id="mask0_48_627" style="mask-type:luminance" maskUnits="userSpaceOnUse" x="2" y="0" width="16" height="15">
<path d="M17.545 0H2.60498V15H17.545V0Z" fill="white"/>
</mask>
<g mask="url(#mask0_48_627)">
<path d="M6.0026 2.04747C6.48378 1.37412 7.08664 0.796695 7.7801 0.344971C6.81423 0.660778 5.92338 1.17129 5.1626 1.84497C5.26941 1.91029 5.38584 1.95838 5.5076 1.98747C5.67091 2.01957 5.83635 2.03962 6.0026 2.04747Z" fill="#8C9099"/>
<path d="M6.95508 2.085C8.26609 2.02794 9.57035 1.86491 10.855 1.5975C12.334 1.29766 13.8698 1.47356 15.2425 2.1C13.9183 0.820732 12.1699 0.0732712 10.33 0C10.3054 0.0410913 10.2728 0.0768518 10.2342 0.105185C10.1956 0.133517 10.1517 0.153854 10.105 0.165C8.8795 0.45832 7.77739 1.13008 6.95508 2.085Z" fill="#8C9099"/>
<path d="M16.7425 10.3501C16.3817 9.80985 15.9419 9.32693 15.4375 8.91758C13.7959 7.5825 11.9291 6.55135 9.92498 5.87254C8.61679 5.40614 7.25228 5.11608 5.86748 5.01004C5.86748 5.10004 5.81498 5.19754 5.79248 5.29504C6.58315 5.65315 7.24528 6.24463 7.68998 6.99004C10.9975 12.0226 13.5775 12.8701 14.815 12.9226H15.1825C15.8881 12.2511 16.4562 11.4487 16.855 10.5601L16.7425 10.3501Z" fill="#414952"/>
<path d="M11.0724 2.72253C9.59326 3.04143 8.08558 3.20978 6.57247 3.22503L6.40747 3.53253C7.7683 3.67842 9.1074 3.98299 10.3974 4.44003C12.578 5.18105 14.6095 6.30349 16.3974 7.755C16.7583 8.06325 17.0943 8.39925 17.4024 8.76C17.4841 8.34458 17.5318 7.92323 17.5449 7.5C17.5446 6.468 17.3328 5.447 16.9224 4.50003C15.3549 3.33003 12.8424 2.38503 11.0724 2.72253Z" fill="#414952"/>
<path d="M6.42244 7.83C6.19586 7.46227 5.90348 7.13938 5.55994 6.87753V7.35753C5.50744 10.2675 6.58744 13.1025 8.23744 14.4225L8.90494 14.9025C10.4409 15.1581 12.0184 14.9136 13.4049 14.205C11.7024 13.68 9.24244 12.12 6.42244 7.83Z" fill="#8C9099"/>
<path d="M4.36003 2.625C4.0993 2.9306 3.86354 3.25664 3.65503 3.6C4.1111 3.52236 4.57245 3.47973 5.03503 3.4725H5.21503C5.27503 3.3525 5.32753 3.225 5.38753 3.105C5.07279 3.04081 4.77271 2.91874 4.50253 2.745L4.36003 2.625Z" fill="#414952"/>
<path d="M4.0225 7.32747V7.18497C3.92387 7.31356 3.83845 7.45176 3.7675 7.5975C3.43993 8.2686 3.2633 9.0033 3.25 9.75V10.665C3.75964 11.776 4.53184 12.7463 5.5 13.4925C4.47661 11.6021 3.96715 9.47632 4.0225 7.32747Z" fill="#8C9099"/>
<path d="M4.10498 5.25H4.24748L4.29248 5.0625C3.89247 5.08761 3.49571 5.15039 3.10748 5.25L2.85998 5.325C2.73865 5.73937 2.65334 6.16345 2.60498 6.5925C2.94512 5.99333 3.4719 5.52186 4.10498 5.25Z" fill="#414952"/>
</g>
</g>
<defs>
<clipPath id="clip0_48_627">
<rect width="20" height="15" fill="white" transform="translate(0.10498)"/>
</clipPath>
</defs>
</svg>
