<svg width="123" height="31" viewBox="0 0 123 31" fill="none" xmlns="http://www.w3.org/2000/svg">
<g clip-path="url(#clip0_1_7194)">
<g clip-path="url(#clip1_1_7194)">
<g clip-path="url(#clip2_1_7194)">
<g clip-path="url(#clip3_1_7194)">
<path d="M17.3681 2.52503C17.2372 2.45784 17.0796 2.47503 16.9657 2.56892L13.1924 5.70307L9.36029 0.750863C9.2877 0.664638 9.18157 0.61499 9.06984 0.61499C8.95811 0.61499 8.85198 0.664638 8.77939 0.750863L4.94731 5.70307L1.174 2.56892C1.06035 2.47409 0.90211 2.45673 0.771126 2.52473C0.640142 2.59272 0.561362 2.73312 0.570549 2.88219L1.24717 14.2051C1.29553 14.9967 1.94148 15.6139 2.72272 15.615H15.417C16.1982 15.6139 16.8442 14.9967 16.8925 14.2051L17.5691 2.88219C17.5781 2.73313 17.4992 2.59285 17.3681 2.52503Z" fill="#C5A075"/>
<path d="M16.5249 12.615L16.5698 11.615H1.56982L1.61475 12.615H16.5249Z" fill="#705B43"/>
</g>
</g>
</g>
<path d="M26.5169 12.135V3.81681H29.7012C30.3023 3.81681 30.8019 3.91158 31.1999 4.10113C31.6007 4.28796 31.8999 4.54384 32.0975 4.86877C32.2979 5.1937 32.3981 5.56195 32.3981 5.97353C32.3981 6.312 32.3331 6.60172 32.2031 6.84271C32.0732 7.08099 31.8985 7.2746 31.6792 7.42352C31.4599 7.57245 31.2148 7.67941 30.944 7.74439V7.82562C31.2392 7.84187 31.5221 7.93258 31.7929 8.09775C32.0664 8.26022 32.2898 8.49037 32.4631 8.78823C32.6364 9.08608 32.723 9.44621 32.723 9.86861C32.723 10.2991 32.6188 10.6864 32.4103 11.0302C32.2018 11.3714 31.8877 11.6408 31.468 11.8385C31.0483 12.0362 30.5203 12.135 29.884 12.135H26.5169ZM28.0237 10.8759H29.6443C30.1913 10.8759 30.5853 10.7716 30.8263 10.5632C31.07 10.3519 31.1918 10.0812 31.1918 9.75083C31.1918 9.50442 31.1309 9.28239 31.009 9.08472C30.8872 8.88435 30.7139 8.7273 30.4891 8.61358C30.2644 8.49714 29.9963 8.43893 29.6849 8.43893H28.0237V10.8759ZM28.0237 7.35448H29.5144C29.7743 7.35448 30.0085 7.30709 30.217 7.21232C30.4255 7.11484 30.5893 6.9781 30.7085 6.8021C30.8303 6.62339 30.8912 6.41218 30.8912 6.16849C30.8912 5.84626 30.7775 5.58091 30.5501 5.37241C30.3253 5.16391 29.9909 5.05967 29.5469 5.05967H28.0237V7.35448ZM33.9689 12.135V5.89636H35.3946V6.93613H35.4595C35.5733 6.576 35.7682 6.29846 36.0444 6.1035C36.3233 5.90584 36.6415 5.807 36.9989 5.807C37.0801 5.807 37.1708 5.81106 37.271 5.81919C37.3739 5.8246 37.4592 5.83408 37.5269 5.84762V7.20014C37.4646 7.17847 37.3658 7.15952 37.2304 7.14327C37.0977 7.12432 36.9691 7.11484 36.8446 7.11484C36.5765 7.11484 36.3355 7.17306 36.1216 7.28949C35.9104 7.40322 35.7439 7.56162 35.622 7.7647C35.5002 7.96778 35.4392 8.202 35.4392 8.46736V12.135H33.9689ZM40.9681 12.2568C40.3589 12.2568 39.8309 12.1228 39.3841 11.8547C38.9373 11.5867 38.5907 11.2117 38.3443 10.7297C38.1006 10.2477 37.9788 9.68449 37.9788 9.04005C37.9788 8.3956 38.1006 7.83104 38.3443 7.34635C38.5907 6.86167 38.9373 6.48529 39.3841 6.21723C39.8309 5.94916 40.3589 5.81513 40.9681 5.81513C41.5773 5.81513 42.1054 5.94916 42.5521 6.21723C42.9989 6.48529 43.3441 6.86167 43.5878 7.34635C43.8342 7.83104 43.9575 8.3956 43.9575 9.04005C43.9575 9.68449 43.8342 10.2477 43.5878 10.7297C43.3441 11.2117 42.9989 11.5867 42.5521 11.8547C42.1054 12.1228 41.5773 12.2568 40.9681 12.2568ZM40.9762 11.079C41.3066 11.079 41.5828 10.9883 41.8048 10.8068C42.0268 10.6227 42.192 10.3763 42.3003 10.0676C42.4113 9.75895 42.4668 9.41507 42.4668 9.03598C42.4668 8.65419 42.4113 8.30896 42.3003 8.00027C42.192 7.68888 42.0268 7.44112 41.8048 7.257C41.5828 7.07287 41.3066 6.98081 40.9762 6.98081C40.6378 6.98081 40.3562 7.07287 40.1314 7.257C39.9094 7.44112 39.7429 7.68888 39.6318 8.00027C39.5235 8.30896 39.4694 8.65419 39.4694 9.03598C39.4694 9.41507 39.5235 9.75895 39.6318 10.0676C39.7429 10.3763 39.9094 10.6227 40.1314 10.8068C40.3562 10.9883 40.6378 11.079 40.9762 11.079ZM46.6757 8.47954V12.135H45.2054V5.89636H46.6107V6.95644H46.6838C46.8273 6.60714 47.0561 6.3296 47.3702 6.12381C47.687 5.91802 48.0783 5.81513 48.544 5.81513C48.9746 5.81513 49.3496 5.90719 49.6691 6.09132C49.9913 6.27544 50.2404 6.54215 50.4164 6.89145C50.5951 7.24075 50.6831 7.66451 50.6804 8.16274V12.135H49.2101V8.39019C49.2101 7.9732 49.1018 7.64691 48.8852 7.41134C48.6713 7.17577 48.3748 7.05798 47.9957 7.05798C47.7385 7.05798 47.5097 7.11484 47.3093 7.22857C47.1116 7.33958 46.9559 7.50069 46.8422 7.7119C46.7312 7.9231 46.6757 8.17898 46.6757 8.47954ZM52.0939 12.135V11.2008L55.3107 7.16764V7.11484H52.1995V5.89636H57.11V6.89958L54.0475 10.8637V10.9165H57.2156V12.135H52.0939ZM61.1807 12.2568C60.5552 12.2568 60.015 12.1269 59.5601 11.8669C59.1079 11.6043 58.76 11.2333 58.5163 10.754C58.2726 10.2721 58.1508 9.7048 58.1508 9.05223C58.1508 8.4105 58.2726 7.84729 58.5163 7.3626C58.7627 6.87521 59.1066 6.49612 59.5479 6.22535C59.9893 5.95187 60.5078 5.81513 61.1035 5.81513C61.488 5.81513 61.8509 5.8774 62.1921 6.00196C62.5359 6.12381 62.8392 6.31335 63.1019 6.57059C63.3672 6.82782 63.5757 7.15546 63.7273 7.5535C63.879 7.94883 63.9548 8.41997 63.9548 8.96694V9.41778H58.8412V8.42674H62.5454C62.5427 8.14514 62.4818 7.89467 62.3626 7.67534C62.2435 7.45331 62.077 7.27866 61.8631 7.1514C61.6519 7.02413 61.4055 6.9605 61.1239 6.9605C60.8233 6.9605 60.5593 7.03361 60.3318 7.17983C60.1044 7.32334 59.927 7.51288 59.7998 7.74845C59.6752 7.98132 59.6116 8.2372 59.6089 8.5161V9.38122C59.6089 9.74406 59.6752 10.0554 59.8079 10.3154C59.9406 10.5726 60.1261 10.7703 60.3643 10.9084C60.6026 11.0438 60.8815 11.1115 61.201 11.1115C61.4149 11.1115 61.6085 11.0817 61.7818 11.0221C61.9551 10.9598 62.1054 10.8691 62.2327 10.75C62.3599 10.6308 62.4561 10.4833 62.521 10.3073L63.8939 10.4616C63.8072 10.8244 63.6421 11.1413 63.3984 11.412C63.1574 11.6801 62.8487 11.8886 62.4723 12.0375C62.0959 12.1837 61.6654 12.2568 61.1807 12.2568Z" fill="#C5A075"/>
<path d="M8.25531 21.0495V29.095H6.95892L3.16797 23.6148H3.10119V29.095H1.64374V21.0495H2.94798L6.735 26.5337H6.80571V21.0495H8.25531ZM9.78053 29.095V23.0609H11.2026V29.095H9.78053ZM9.94945 22.2674L10.8294 20.4721H12.2201L11.0141 22.2674H9.94945ZM18.0548 23.0609L15.906 29.095H14.3346L12.1857 23.0609H13.7021L15.0888 27.5433H15.1517L16.5424 23.0609H18.0548ZM21.505 29.2129C20.9 29.2129 20.3775 29.0871 19.9375 28.8357C19.5002 28.5817 19.1636 28.2229 18.9279 27.7593C18.6922 27.2932 18.5743 26.7445 18.5743 26.1133C18.5743 25.4926 18.6922 24.9479 18.9279 24.4791C19.1662 24.0077 19.4988 23.641 19.9257 23.3791C20.3526 23.1146 20.8542 22.9823 21.4303 22.9823C21.8022 22.9823 22.1532 23.0426 22.4832 23.163C22.8158 23.2809 23.1091 23.4642 23.3631 23.713C23.6198 23.9618 23.8214 24.2787 23.9681 24.6637C24.1148 25.0461 24.1881 25.5018 24.1881 26.0308V26.4669H19.2422V25.5083H22.8249C22.8223 25.236 22.7634 24.9937 22.6481 24.7816C22.5329 24.5668 22.3718 24.3979 22.1649 24.2748C21.9607 24.1517 21.7223 24.0902 21.45 24.0902C21.1593 24.0902 20.9039 24.1609 20.6839 24.3023C20.4639 24.4411 20.2924 24.6244 20.1693 24.8523C20.0488 25.0775 19.9873 25.325 19.9847 25.5948V26.4315C19.9847 26.7825 20.0488 27.0836 20.1772 27.3351C20.3055 27.5839 20.4849 27.775 20.7154 27.9086C20.9458 28.0396 21.2156 28.105 21.5246 28.105C21.7315 28.105 21.9188 28.0762 22.0864 28.0186C22.254 27.9584 22.3993 27.8706 22.5224 27.7554C22.6455 27.6402 22.7385 27.4974 22.8014 27.3272L24.1292 27.4765C24.0454 27.8274 23.8856 28.1338 23.6499 28.3957C23.4168 28.655 23.1183 28.8567 22.7542 29.0007C22.3902 29.1421 21.9738 29.2129 21.505 29.2129ZM26.8133 21.0495V29.095H25.3912V21.0495H26.8133ZM33.801 29.205C33.2772 29.205 32.8084 29.1068 32.3946 28.9104C31.9808 28.7113 31.6521 28.439 31.4086 28.0932C31.1676 27.7475 31.0393 27.3521 31.0236 26.9069H32.4378C32.464 27.2368 32.6068 27.5066 32.866 27.7161C33.1253 27.923 33.437 28.0265 33.801 28.0265C34.0865 28.0265 34.3405 27.961 34.5631 27.83C34.7857 27.6991 34.9612 27.5171 35.0895 27.284C35.2179 27.0509 35.2807 26.7851 35.2781 26.4865C35.2807 26.1827 35.2166 25.913 35.0856 25.6773C34.9547 25.4415 34.7753 25.2569 34.5474 25.1233C34.3196 24.9872 34.0577 24.9191 33.7617 24.9191C33.5208 24.9164 33.2838 24.961 33.0507 25.0526C32.8176 25.1443 32.6329 25.2648 32.4968 25.414L31.1807 25.198L31.6011 21.0495H36.2681V22.2674H32.8071L32.5753 24.4005H32.6225C32.7717 24.225 32.9826 24.0797 33.2549 23.9645C33.5273 23.8466 33.8259 23.7877 34.1506 23.7877C34.6378 23.7877 35.0725 23.9029 35.4549 24.1334C35.8372 24.3612 36.1384 24.6755 36.3584 25.0762C36.5784 25.4769 36.6884 25.9352 36.6884 26.4512C36.6884 26.9828 36.5653 27.4568 36.3191 27.8733C36.0756 28.2871 35.7364 28.6131 35.3017 28.8514C34.8695 29.0871 34.3693 29.205 33.801 29.205Z" fill="#BCBFC7"/>
<rect x="0.569824" y="26.12" width="121.52" height="3.99" rx="1.995" fill="#353E4C"/>
<rect x="0.569824" y="26.12" width="95.44" height="3.99" rx="1.995" fill="#C5A075"/>
</g>
<defs>
<clipPath id="clip0_1_7194">
<rect width="121.52" height="29.13" fill="white" transform="translate(0.569824 0.979996)"/>
</clipPath>
<clipPath id="clip1_1_7194">
<rect width="17" height="15" fill="white" transform="translate(0.569824 0.61499)"/>
</clipPath>
<clipPath id="clip2_1_7194">
<rect width="17" height="15" fill="white" transform="translate(0.569824 0.61499)"/>
</clipPath>
<clipPath id="clip3_1_7194">
<rect width="17" height="15" fill="white" transform="translate(0.569824 0.61499)"/>
</clipPath>
</defs>
</svg>
