<svg id="Layer_2" width="16" height="16" viewBox="0 0 24 24" fill="#8c9099" xmlns="http://www.w3.org/2000/svg"><defs><style>.cls-1{fill:#8c9099;}</style></defs><g id="Layer_1-2"><g><polygon class="cls-1" points="5.6 11.86 5.6 26.68 0 26.68 0 16.29 5.56 11.83 5.6 11.86"></polygon><polygon class="cls-1" points="14.55 15.68 14.55 26.68 8.95 26.68 8.95 14.66 12.12 17.3 14.55 15.68"></polygon><polygon class="cls-1" points="23.5 9.89 23.5 26.68 17.9 26.68 17.9 13.44 23.23 9.89 23.5 9.89"></polygon><polygon class="cls-1" points="23.5 0 23.5 6.73 15.11 12.32 12.68 13.94 9.51 11.3 6.15 8.51 6.12 8.47 .56 12.94 0 13.38 0 6.21 6.19 1.24 12.54 6.54 13.06 6.96 13.7 6.54 23.5 0"></polygon></g></g></svg>