<svg width="17" height="16" viewBox="0 0 17 16" fill="none" xmlns="http://www.w3.org/2000/svg"><path d="M5.82519 4.85418L8.1374 0.217816C8.28454 -0.0726053 8.70495 -0.0726053 8.85209 0.217816L11.1748 4.85418C11.2379 4.96828 11.343 5.05126 11.4796 5.072L16.6611 5.80843C16.9869 5.84991 17.113 6.25443 16.8818 6.48262L13.1297 10.0921C13.0351 10.1855 12.9931 10.31 13.0141 10.4448L13.8969 15.5375C13.9495 15.8591 13.6131 16.108 13.3189 15.9524L8.68393 13.5461C8.56832 13.4838 8.43169 13.4838 8.31607 13.5461L3.68113 15.9524C3.38685 16.108 3.05053 15.8591 3.10308 15.5375L3.98592 10.4448C4.00695 10.3203 3.9649 10.1855 3.87031 10.0921L0.118219 6.48262C-0.113003 6.25443 0.0131181 5.86029 0.33893 5.80843L5.5204 5.06163C5.64652 5.04088 5.76213 4.95791 5.81468 4.84381L5.82519 4.85418Z" fill="#8C9099"></path></svg>