<svg width="40" height="39" viewBox="0 0 40 39" fill="none" xmlns="http://www.w3.org/2000/svg">
<mask id="path-1-inside-1_1_7059" fill="white">
<path d="M-0.0100098 4.53999C-0.0100098 2.33085 1.78085 0.539993 3.98999 0.539993H35.99C38.1991 0.539993 39.99 2.33085 39.99 4.53999V34.54C39.99 36.7491 38.1991 38.54 35.99 38.54H3.98999C1.78085 38.54 -0.0100098 36.7491 -0.0100098 34.54V4.53999Z"/>
</mask>
<path d="M3.98999 1.53999H35.99V-0.460007H3.98999V1.53999ZM38.99 4.53999V34.54H40.99V4.53999H38.99ZM35.99 37.54H3.98999V39.54H35.99V37.54ZM0.98999 34.54V4.53999H-1.01001V34.54H0.98999ZM3.98999 37.54C2.33314 37.54 0.98999 36.1968 0.98999 34.54H-1.01001C-1.01001 37.3014 1.22857 39.54 3.98999 39.54V37.54ZM38.99 34.54C38.99 36.1968 37.6468 37.54 35.99 37.54V39.54C38.7514 39.54 40.99 37.3014 40.99 34.54H38.99ZM35.99 1.53999C37.6468 1.53999 38.99 2.88314 38.99 4.53999H40.99C40.99 1.77857 38.7514 -0.460007 35.99 -0.460007V1.53999ZM3.98999 -0.460007C1.22857 -0.460007 -1.01001 1.77857 -1.01001 4.53999H0.98999C0.98999 2.88314 2.33314 1.53999 3.98999 1.53999V-0.460007Z" fill="#323B45" mask="url(#path-1-inside-1_1_7059)"/>
<mask id="mask0_1_7059" style="mask-type:luminance" maskUnits="userSpaceOnUse" x="1" y="1" width="38" height="37">
<path d="M38.0794 1.45H1.90039V37.63H38.0794V1.45Z" fill="white"/>
</mask>
<g mask="url(#mask0_1_7059)">
<mask id="mask1_1_7059" style="mask-type:luminance" maskUnits="userSpaceOnUse" x="4" y="4" width="32" height="31">
<path d="M4.91528 4.46492H35.0645V34.6149H4.91528V4.46492Z" fill="white"/>
</mask>
<g mask="url(#mask1_1_7059)">
<path d="M16.101 14.2951C15.8296 13.873 13.6998 12.7706 12.9805 14.3705C12.2419 16.0136 15.9804 17.913 16.2216 19.119C16.2746 19.3843 16.1311 19.6616 16.0407 19.7822" stroke="#E29214" stroke-width="1.20597" stroke-linecap="round"/>
<path d="M17.9438 18.6765H22.025C20.7946 20.8076 20.5546 23.2 21.5106 25.4963H18.4583C19.5172 23.1652 19.1037 20.8864 17.9438 18.6765Z" fill="#E29214"/>
<path d="M16.9967 11.8253H22.9725C23.685 11.8253 24.3294 12.4024 24.2585 13.1113L23.7441 18.2551C23.4129 21.5664 16.5562 21.5664 16.225 18.2551L15.7107 13.1113C15.6398 12.4024 16.2842 11.8253 16.9967 11.8253Z" fill="#FFB43F"/>
<path d="M17.4126 23.746C16.3089 23.746 15.2469 27.2571 16.7306 27.2571H23.2386C24.7223 27.2571 23.6603 23.746 22.5566 23.746H17.4126Z" fill="#59586E"/>
<mask id="mask2_1_7059" style="mask-type:alpha" maskUnits="userSpaceOnUse" x="16" y="23" width="8" height="5">
<path d="M17.4126 23.746C16.3089 23.746 15.2469 27.2571 16.7306 27.2571H23.2386C24.7223 27.2571 23.6603 23.746 22.5566 23.746H17.4126Z" fill="#59586E"/>
</mask>
<g mask="url(#mask2_1_7059)">
<path d="M18.4197 24.6687H21.552C21.8127 24.6687 21.9273 24.8967 22.0226 25.1393L22.2343 25.6776C22.3297 25.9203 22.16 26.1482 21.8993 26.1482H18.0443C17.7837 26.1482 17.6421 25.9203 17.7375 25.6776L17.9491 25.1393C18.0445 24.8967 18.159 24.6687 18.4197 24.6687Z" fill="white"/>
</g>
<mask id="mask3_1_7059" style="mask-type:alpha" maskUnits="userSpaceOnUse" x="15" y="11" width="10" height="10">
<path d="M16.9967 11.8253H22.9725C23.685 11.8253 24.3294 12.4024 24.2585 13.1113L23.7441 18.2551C23.4129 21.5664 16.5562 21.5664 16.225 18.2551L15.7107 13.1113C15.6398 12.4024 16.2842 11.8253 16.9967 11.8253Z" fill="#FFD764"/>
</mask>
<g mask="url(#mask3_1_7059)">
<g opacity="0.65">
<path d="M21.1484 17.6013C20.8301 17.8349 20.388 17.2886 19.9932 17.2905C19.5984 17.2925 19.1615 17.8431 18.841 17.6127C18.5205 17.3822 18.9035 16.7928 18.7796 16.418C18.6558 16.0431 17.9971 15.7978 18.1172 15.4217C18.2374 15.0456 18.9163 15.2277 19.2345 14.9941C19.5528 14.7605 19.5825 14.0583 19.9773 14.0563C20.372 14.0543 20.4086 14.7563 20.7292 14.9868C21.0497 15.2172 21.7268 15.0285 21.8506 15.4034C21.9745 15.7783 21.3182 16.0299 21.1981 16.406C21.0779 16.7821 21.4666 17.3677 21.1484 17.6013Z" fill="white"/>
</g>
</g>
<mask id="mask4_1_7059" style="mask-type:alpha" maskUnits="userSpaceOnUse" x="15" y="11" width="10" height="10">
<path d="M17.004 11.8061H22.9798C23.6923 11.8061 24.3367 12.3832 24.2658 13.0921L23.7514 18.2359C23.4203 21.5472 16.5635 21.5472 16.2324 18.2359L15.718 13.0921C15.6471 12.3832 16.2915 11.8061 17.004 11.8061Z" fill="#FFB43F"/>
</mask>
<g mask="url(#mask4_1_7059)">
<path d="M25.477 12.9673C25.457 12.9688 25.4369 12.9684 25.4167 12.9678C25.3966 12.9672 25.3764 12.9665 25.3564 12.9673C25.0109 12.9814 24.4807 13.1481 24.0381 13.3937C23.5956 13.6394 23.2407 13.964 23.2459 14.2939C23.2483 14.4447 23.3029 14.5863 23.3975 14.6947C23.492 14.8032 23.6265 14.8786 23.7886 14.8968C23.9821 14.9187 24.1006 14.8637 24.1944 14.7855C24.2883 14.7074 24.3573 14.606 24.4519 14.5351C24.4755 14.5173 24.5101 14.5091 24.5441 14.5018C24.5781 14.4946 24.6115 14.4883 24.6328 14.4748C24.8414 14.342 25.1377 14.2154 25.4297 14.1626C25.7217 14.1098 26.0093 14.131 26.2006 14.2939C26.2857 14.3664 26.3593 14.4462 26.4125 14.5358C26.4657 14.6254 26.4985 14.7248 26.502 14.8366C26.5051 14.9331 26.47 15.0425 26.4214 15.1484C26.3729 15.2542 26.3111 15.3566 26.2609 15.4395C25.9311 15.9842 25.3317 16.4611 24.9343 16.8264C24.2574 17.4486 23.4687 18.1329 23.2459 18.7559C23.1252 19.0937 23.1128 19.135 23.1253 19.3589C23.1351 19.5333 23.298 19.9957 23.3665 20.0825C23.7739 20.5985 24.637 20.3779 24.5122 19.6001C24.486 19.437 24.3095 19.3161 24.3313 19.178C24.3438 19.0988 24.5858 18.8788 24.6931 18.7559C24.8337 18.5951 24.9688 18.4728 25.1152 18.3339C25.6528 17.8235 25.9921 17.439 26.4417 17.0676C26.4893 17.0283 26.5222 16.992 26.5623 16.947C27.0508 16.3993 27.7257 15.7282 27.708 14.7763C27.7009 14.3912 27.5096 14.0497 27.4065 13.8718C27.2877 13.6665 27.2076 13.5978 27.0447 13.4497C26.5956 13.041 26.2181 12.9113 25.477 12.9673Z" fill="#E29114"/>
</g>
</g>
</g>
</svg>
